{"asset":{"version":"2.0","generator":"VECTARY"},"nodes":[{"translation":[-0.04999999999999999,-2.1316282072803006e-17,0.10999999999999996],"scale":[0.001,0.001,0.001],"rotation":[7.850462293418873e-17,-1,-2.220446049250313e-16,6.123233995736765e-17],"name":"Group","children":[1,2]},{"translation":[0,0,0],"scale":[1,1,1],"rotation":[0,0,0,1],"name":"SquarePlane - baked","mesh":0},{"translation":[0,0,1],"scale":[0.957142857142857,0.9700000000000002,2],"rotation":[0,0,0,1],"name":"SquarePlane - baked 1","mesh":1}],"materials":[{"pbrMetallicRoughness":{"baseColorFactor":[0,1,0.04777575355617064,1],"metallicFactor":1,"roughnessFactor":0},"name":"Zion","emissiveFactor":[0,0,0],"alphaMode":"OPAQUE","doubleSided":false},{"pbrMetallicRoughness":{"baseColorFactor":[0,0,0,1],"metallicFactor":0,"roughnessFactor":0.73},"name":"Zion 1","emissiveFactor":[0,0,0],"alphaMode":"OPAQUE","doubleSided":false}],"meshes":[{"primitives":[{"mode":4,"attributes":{"POSITION":1,"NORMAL":2},"material":0,"indices":0}]},{"primitives":[{"mode":4,"attributes":{"POSITION":4,"NORMAL":5},"material":1,"indices":3}]}],"accessors":[{"bufferView":0,"byteOffset":0,"componentType":5125,"count":12,"type":"SCALAR"},{"bufferView":1,"byteOffset":0,"componentType":5126,"count":6,"max":[35,50,0],"min":[-35,-50,0],"type":"VEC3"},{"bufferView":2,"byteOffset":0,"componentType":5126,"count":6,"type":"VEC3"},{"bufferView":3,"byteOffset":0,"componentType":5125,"count":12,"type":"SCALAR"},{"bufferView":4,"byteOffset":0,"componentType":5126,"count":6,"max":[35,50,0],"min":[-35,-50,0],"type":"VEC3"},{"bufferView":5,"byteOffset":0,"componentType":5126,"count":6,"type":"VEC3"}],"bufferViews":[{"buffer":0,"byteOffset":0,"byteLength":48,"target":34963},{"buffer":0,"byteOffset":48,"byteLength":72,"target":34962},{"buffer":0,"byteOffset":120,"byteLength":72,"target":34962},{"buffer":0,"byteOffset":192,"byteLength":48,"target":34963},{"buffer":0,"byteOffset":240,"byteLength":72,"target":34962},{"buffer":0,"byteOffset":312,"byteLength":72,"target":34962}],"scene":0,"scenes":[{"nodes":[0],"name":"Card"}],"extensionsUsed":["KHR_texture_transform"],"buffers":[{"byteLength":384,"uri":"Card.bin"}]}